<?xml version="1.0" encoding="UTF-8"?>
<svg width="1200pt" height="1200pt" version="1.1" viewBox="0 0 1200 1200" xmlns="http://www.w3.org/2000/svg">
 <path d="m991 458.25-388.95-193.34-388.95 193.34-35.297-71.035 423.69-210.63 0.17188-0.5 0.38281 0.21875 0.37891-0.21875 0.17188 0.5 423.7 210.63z"/>
 <path d="m270.87 539.02c15.191-5.7422 11.676-42.027 11.676-42.027 0-27.621 22.418-50 50.117-50 27.621 0 50.078 22.379 50.078 50 0 27.73-22.457 50.152-50.078 50.152-9.293 0-17.539-3.2812-24.926-7.5742-20.699 1.4844-46.289 2.9648-36.867-0.55078z"/>
 <path d="m468.95 710.11c0-39.613-28.477-72.422-66.016-79.453-12.773-40.504-33.516-70.625-67.543-70.625-46.059 0-47.812 15.469-60.27 41.094 0 0-0.035156 0-0.035156 0.042969v0.078125c-12.5 25.582-38.789 175.78-38.789 175.78-1.9922 8.6289 3.3945 17.227 11.992 19.254 1.25 0.23438 2.4609 0.39062 3.6289 0.39062 7.3008 0 13.91-5.0391 15.625-12.422l35.547-148.83-16.992 211.25h26.285l10.312 188.29c0 6.5625 5.3867 12.027 11.953 12.027 6.7578 0 12.074-5.4688 12.074-12.027l10.273-188.29h63.559s1.7578-26.562 1.4414-63.281c27.652-12.887 46.953-40.773 46.953-73.277zm-56.48 29.965s-34.848-18.949-34.848-40.273c0-10.117 8.2031-18.32 18.359-18.32 8.3633 0 14.262 6.1328 16.488 13.867 2.2617-7.7344 8.125-13.867 16.48-13.867 10.152 0 18.395 8.2031 18.395 18.32 0.007812 21.324-34.875 40.273-34.875 40.273z"/>
 <path d="m659.61 497.11c0 27.695-22.418 50.039-50.082 50.039-27.656 0-50.074-22.344-50.074-50.039 0-27.695 22.422-50.117 50.074-50.117 27.652-0.003906 50.082 22.422 50.082 50.117z"/>
 <path d="m725.73 754.64s-26.285-127.74-38.789-153.36v-0.078125s-0.035156 0-0.035156-0.078125c-12.504-25.582-25.004-41.012-72.461-41.012h-9.8398c-47.457 0-59.953 15.43-72.457 41.012 0 0.078125-0.035157 0.078125-0.035157 0.078125v0.078125c-12.496 25.625-38.789 153.36-38.789 153.36-1.957 8.5938 3.3984 17.188 12.027 19.133 1.2148 0.32031 2.4258 0.46875 3.5938 0.46875 7.3008 0 13.91-5.0742 15.625-12.418l35.547-126.36-34.535 211.21h33.285l10.348 188.32c0 6.6055 5.3906 11.992 11.875 11.992 6.793 0 12.145-5.3867 12.145-11.992l10.234-188.32h12.105l10.238 188.32c0 6.6055 5.3516 11.992 12.145 11.992 6.4883 0 11.871-5.3867 11.871-11.992l10.359-188.32h33.238l-34.484-211.21 35.547 126.37c1.7148 7.3477 8.3242 12.422 15.625 12.422 1.168 0 2.3789-0.14844 3.5938-0.46875 8.625-1.9531 13.98-10.551 12.023-19.145z"/>
 <path d="m967.88 804.51s-22.898-105.96-33.793-127.2v-0.0625s-0.03125 0-0.03125-0.0625c-10.895-21.227-21.785-34.023-63.129-34.023h-8.5781c-41.348 0-52.234 12.797-63.129 34.023 0 0.0625-0.03125 0.0625-0.03125 0.0625v0.0625c-10.891 21.254-33.797 127.2-33.797 127.2-1.7031 7.125 2.9609 14.246 10.484 15.867 1.0508 0.26953 2.1094 0.39062 3.1289 0.39062 6.3633 0 12.117-4.2109 13.609-10.301l30.973-104.81-30.082 175.18h28.996l9.0156 156.2c0 5.4805 4.6953 9.9453 10.344 9.9453 5.9219 0 10.578-4.4648 10.578-9.9453l8.918-156.2h10.547l8.918 156.2c0 5.4805 4.6641 9.9453 10.578 9.9453 5.6523 0 10.344-4.4648 10.344-9.9453l9.0234-156.2h28.961l-30.043-175.18 30.973 104.81c1.4922 6.0938 7.2461 10.305 13.613 10.305 1.0195 0 2.0664-0.125 3.1289-0.38672 7.5234-1.6211 12.184-8.7539 10.48-15.879z"/>
 <path d="m940.52 611.38c0 11.992-10.148 21.711-22.758 21.711-8.7969 0-16.176-4.8906-19.957-11.871-8.6133 7.0781-19.16 11.871-31.152 11.871-12.059 0-22.578-4.8008-31.188-11.871-3.7812 6.9805-11.195 11.871-19.961 11.871-12.605 0-22.758-9.7188-22.758-21.711 0-11.965 10.148-21.711 22.758-21.711 0.95313 0 1.8164 0.42969 2.7695 0.55469-0.33984-2.3047-1.3867-4.3672-1.3867-6.8008 0-27.434 22.262-49.668 49.762-49.668 27.465 0 49.699 22.234 49.699 49.668 0 2.4336-1.0156 4.4922-1.3516 6.8008 0.92188-0.125 1.7773-0.55469 2.7656-0.55469 12.609 0 22.758 9.75 22.758 21.711z"/>
</svg>
