<svg xmlns="http://www.w3.org/2000/svg" version="1.1" viewBox="-5.0 -10.0 110.0 135.0">
 <path d="m43.25 45.852c-0.64844 0-1.2812 0.058594-1.8984 0.17188v-5.1211c0.44141 1.9805 1.5508 3.7188 3.0703 4.9492zm-25.34-5.9102c0-0.69922 0.57031-1.2617 1.2617-1.2617 0.69922 0 1.2617 0.57031 1.2617 1.2617v14.289h12.309c0.76172-3.3086 3.0508-6.0508 6.0703-7.4297v-6.8594c0-0.69922 0.57031-1.2617 1.2617-1.2617 0.44141 0 0.82812 0.23047 1.0586 0.57031 0-0.10156-0.011718-0.19141-0.011718-0.28906 0-3.1406 1.6289-5.8906 4.0898-7.4688-1.8789-2.0117-4.5508-3.2812-7.5-3.2812h-16.199c-5.6484 0-10.27 4.6211-10.27 10.27v15.75h6.6406l-0.003906-14.289zm11.719-13.832c4.4492 0 8.0508-3.6094 8.0508-8.0508 0-4.4492-3.6094-8.0508-8.0508-8.0508-4.4492 0-8.0508 3.6094-8.0508 8.0508s3.6016 8.0508 8.0508 8.0508zm29.23 12.852c0 0.10156 0 0.19141-0.011719 0.28906 0.23047-0.33984 0.62109-0.57031 1.0586-0.57031 0.69922 0 1.2617 0.57031 1.2617 1.2617v6.8594c3.0312 1.3789 5.3203 4.1211 6.0703 7.4297h12.309l0.003906-14.289c0-0.69922 0.57031-1.2617 1.2617-1.2617 0.69922 0 1.2617 0.57031 1.2617 1.2617v14.289h6.6406l-0.003906-15.75c0-5.6484-4.6211-10.27-10.27-10.27h-16.199c-2.9492 0-5.6289 1.2695-7.5 3.2812 2.4883 1.5664 4.1172 4.3281 4.1172 7.4688zm-0.21094 7.0508v-5.1211c-0.44141 1.9805-1.5508 3.7188-3.0703 4.9492h1.1719c0.64844 0.011718 1.2812 0.058594 1.8984 0.17188zm11.723-19.902c4.4492 0 8.0508-3.6094 8.0508-8.0508 0-4.4492-3.6094-8.0508-8.0508-8.0508-4.4492 0-8.0508 3.6094-8.0508 8.0508s3.6016 8.0508 8.0508 8.0508zm-14.812 54.109c-3.0586 0-5.5586 2.5-5.5586 5.5586 0-3.0586-2.5-5.5586-5.5586-5.5586h-33.18v4.7695h28.602c2.7617 0 5.0117 2.25 5.0117 5.0117h10.27c0-2.7617 2.25-5.0117 5.0117-5.0117h28.602v-4.7695zm-21.18-23.598v8.9102h5.5703v-7.6406c0-0.69922 0.57031-1.2617 1.2617-1.2617 0.69922 0 1.2617 0.57031 1.2617 1.2617v7.6406h1.9609c2.2109 0 4.1992 0.96875 5.5586 2.5 1.3711-1.5312 3.3594-2.5 5.5586-2.5h1.9609v-7.6406c0-0.69922 0.57031-1.2617 1.2617-1.2617 0.69922 0 1.2617 0.57031 1.2617 1.2617v7.6406h5.5703v-8.9102c0-4.8789-3.9883-8.8789-8.8789-8.8789l-6.7266-0.003907h-6.75c-4.8789 0-8.8711 4-8.8711 8.8828zm8.6602-17.66c0 3.8516 3.1211 6.9609 6.9609 6.9609s6.9609-3.1211 6.9609-6.9609c0-3.8516-3.1211-6.9609-6.9609-6.9609s-6.9609 3.1094-6.9609 6.9609zm18.762 32.328h22.199v-3.8711l-28.441 0.003906c-3.0586 0-5.5586 2.5-5.5586 5.5586 0-3.0586-2.5-5.5586-5.5586-5.5586h-28.43v3.8711h22.199c0.69922 0 1.2617 0.57031 1.2617 1.2617 0 0.69922-0.57031 1.2617-1.2617 1.2617h-22.199v3.8711h28.43c1.75 0 3.3086 0.80859 4.3281 2.0781 0.30859 0.39062 0.73828 0.58984 1.2305 0.58984 0.48828 0 0.92188-0.19922 1.2305-0.58984 1.0195-1.2695 2.5781-2.0781 4.3281-2.0781h28.43v-3.8711l-22.188-0.007812c-0.69922 0-1.2617-0.57031-1.2617-1.2617-0.007812-0.6875 0.5625-1.2578 1.2617-1.2578z" fill-rule="evenodd"/>
<text x="0.0" y="117.5" font-size="5.0" font-weight="bold" font-family="Arbeit Regular, Helvetica, Arial-Unicode, Arial, Sans-serif" fill="#000000">Created by Mia Elysia</text><text x="0.0" y="122.5" font-size="5.0" font-weight="bold" font-family="Arbeit Regular, Helvetica, Arial-Unicode, Arial, Sans-serif" fill="#000000">from Noun Project</text></svg>