<svg xmlns="http://www.w3.org/2000/svg" viewBox="0 0 64 80" x="0px" y="0px"><title>baby after bath</title><g data-name="Layer 44"><path d="M36.66152,4.45476a31.8912,31.8912,0,0,0-9.324-.0085c-.113.01718-.22309.04906-.33532.07054A5.2615,5.2615,0,0,1,26.98,3.54045.96711.96711,0,1,0,25.05129,3.395a7.16887,7.16887,0,0,0,.06529,1.6942,13.24173,13.24173,0,0,0-7.63433,11.84194v29.4988a15.11875,15.11875,0,0,0,6.46724,12.3942l.26588.18513a13.865,13.865,0,0,0,16.11142-.18135,15.1597,15.1597,0,0,0,6.191-12.19679v-29.7C46.51775,10.98056,42.00476,5.268,36.66152,4.45476ZM25.7248,6.92106a6.865,6.865,0,0,0,2.02839,2.35567,7.80726,7.80726,0,0,0-6.40685,7.65346v1.4253a9.35463,9.35463,0,0,0,8.57686,9.33674c.68668.051,1.38327.07651,2.0709.07651.69612,0,1.397-.02645,2.0827-.07746a9.09552,9.09552,0,0,0,4.09285-1.32648,33.426,33.426,0,0,1-8.24314,9.39577c-7.81285-1.66486-10.25188-9.98439-10.50985-10.95514v-7.8743A11.22228,11.22228,0,0,1,25.7248,6.92106Zm14.994,11.43443a7.41363,7.41363,0,0,1-6.786,7.40705,26.41316,26.41316,0,0,1-3.86646.00095,7.4125,7.4125,0,0,1-6.78555-7.408v-1.4253a5.86209,5.86209,0,0,1,4.92859-5.77489,25.79047,25.79047,0,0,1,7.58085.00094,5.86357,5.86357,0,0,1,4.92858,5.77489ZM39.18485,57.26565a11.92112,11.92112,0,0,1-10.87574,1.65842.33983.33983,0,0,0,.00555-.05082.36112.36112,0,0,0-.39435-.32776c-.176.01612-.33873.028-.49482.03831a11.91255,11.91255,0,0,1-2.10359-1.16136l-.26589-.18513a13.1811,13.1811,0,0,1-5.52607-9.122l.48414-.21288a.36309.36309,0,0,0-.29186-.66495l-.24966.1098c-.02143-.30544-.0559-.60875-.0559-.91738V44.56878C42.65779,33.25194,42.68,19.28657,42.65318,18.35549h0V16.93113A7.80966,7.80966,0,0,0,36.08063,9.2445a27.37979,27.37979,0,0,0-4.441-.289,6.58393,6.58393,0,0,1-4.02048-2.596l.00225-.00048a30.7767,30.7767,0,0,1,4.369-.31831,29.54851,29.54851,0,0,1,4.38123.32681c4.45112.67724,8.21179,5.51515,8.21179,10.56369V22.3912c-.104.39883-.203.79736-.33153,1.19891a.36269.36269,0,0,0,.23472.45621.37628.37628,0,0,0,.09681.01488V44.44676c-.13241.52085-.27208,1.04005-.43448,1.53357a.36235.36235,0,0,0,.34475.47605.34968.34968,0,0,0,.08973-.02881v.20355A13.21544,13.21544,0,0,1,39.18485,57.26565ZM35.65653,22.08641a3.91059,3.91059,0,0,1-3.65677,1.81351,3.90909,3.90909,0,0,1-3.65724-1.81446.96725.96725,0,0,1,1.75306-.818,2.30446,2.30446,0,0,0,1.90418.698,2.30652,2.30652,0,0,0,1.90372-.69707.96725.96725,0,0,1,1.753.818ZM28.3293,42.886a.36361.36361,0,0,1-.10862.50155q-.77.49589-1.58494.98893a.36293.36293,0,0,1-.375-.6215q.80545-.48738,1.567-.9776A.36385.36385,0,0,1,28.3293,42.886ZM35.62159,37.693q-.66873.6234-1.3965,1.24774a.36308.36308,0,0,1-.47227-.55161q.71691-.61348,1.37477-1.227a.36256.36256,0,1,1,.494.53082Zm-5.08066,4.1229a.36273.36273,0,1,1-.42032-.59128q.7672-.54546,1.48339-1.09566a.36282.36282,0,1,1,.4411.57617Q31.319,41.2619,30.54093,41.81587Zm-6.18907,3.46362a.36383.36383,0,0,1-.1431.493q-.804.44062-1.64727.87748a.36268.36268,0,1,1-.33342-.64418q.8352-.43212,1.63121-.86991A.36372.36372,0,0,1,24.35186,45.27949ZM41.68362,30.57212q-.493.76081-1.06591,1.54526a.36291.36291,0,1,1-.58561-.42882q.56175-.76648,1.04324-1.51126a.36259.36259,0,0,1,.60828.39482Zm2.24941-4.122c-.25266.56767-.52894,1.13723-.82222,1.69261a.36251.36251,0,1,1-.64134-.33814c.28525-.54122.55492-1.09661.8005-1.64916a.3628.3628,0,0,1,.66306.29469ZM38.8297,33.81a.36334.36334,0,0,1,.0392.51194q-.59293.69139-1.25434,1.39413a.3628.3628,0,0,1-.527-.49871q.64961-.68715,1.23073-1.36769A.36459.36459,0,0,1,38.8297,33.81ZM28.04594,16.44753a.96721.96721,0,0,1,1.93441,0,.96721.96721,0,1,1-1.93441,0Zm7.73763,0a.9672.9672,0,1,1-1.9344,0,.9672.9672,0,1,1,1.9344,0Zm1.58682,39.25774a.36226.36226,0,0,1-.11145.50061,18.39022,18.39022,0,0,1-1.72094.96531.36243.36243,0,1,1-.32115-.64984,17.991,17.991,0,0,0,1.65341-.92753A.36032.36032,0,0,1,37.37039,55.70527ZM33.034,57.82481a.36268.36268,0,0,1-.2333.45621c-.61489.1993-1.2534.375-1.898.52139a.34363.34363,0,0,1-.08123.00944.36252.36252,0,0,1-.08029-.716c.62434-.14262,1.24159-.31169,1.83571-.50438A.36122.36122,0,0,1,33.034,57.82481Zm10.69829-8.88714a19.25391,19.25391,0,0,1-.9554,1.72.36284.36284,0,1,1-.6149-.38537,18.26291,18.26291,0,0,0,.91857-1.65388.36286.36286,0,0,1,.65173.31925Zm-2.75427,3.576a.36246.36246,0,0,1,.03022.51193,17.42986,17.42986,0,0,1-1.39082,1.39886.36286.36286,0,0,1-.48455-.54027,16.76,16.76,0,0,0,1.33321-1.3403A.362.362,0,0,1,40.97805,52.51369Z"/></g><text x="0" y="79" fill="#000000" font-size="5px" font-weight="bold" font-family="'Helvetica Neue', Helvetica, Arial-Unicode, Arial, Sans-serif">Created by agus raharjo</text><text x="0" y="84" fill="#000000" font-size="5px" font-weight="bold" font-family="'Helvetica Neue', Helvetica, Arial-Unicode, Arial, Sans-serif">from the Noun Project</text></svg>