<svg xmlns="http://www.w3.org/2000/svg" version="1.1" viewBox="-5.0 -10.0 110.0 135.0">
 <path d="m41.457 76.48-1.7148-22.441c-0.003907-0.039062 0.003906-0.070312 0.027343-0.10156 1.8906-2.8789 3.6602-6.6641 4.9297-10.539 0.015625-0.054688 0.007812-0.10547-0.027344-0.15234-1.1172-1.4648-1.9688-2.7891-2.6562-4.1406-0.027344-0.058594-0.085937-0.089844-0.14844-0.089844s-0.11719 0.035156-0.14844 0.09375c-1.543 3.1445-3.6406 6.2422-5.1602 8.082-0.003906 0.007813-0.011719 0.011719-0.015625 0.015625-0.73828 0.66797-2.1445 1.3711-4.0664 2.043-2.918 1.0195-7.0312 1.9688-11.82 2.625-0.011719 0-0.019531 0.003906-0.03125 0.007812-0.63672 0.22266-1.0664 0.82031-1.0664 1.4961 0 0.67188 0.80469 2.0742 1.4453 2.3203 0.019532 0.007812 0.035156 0.011719 0.054688 0.011719 6.75 0.1875 9.7305-0.54688 9.7305-0.54688 0.26563 5.1836-1.2383 10.098-2.2969 15.121-0.019532 0.085938 0.03125 0.16797 0.11719 0.19141 1.3828 0.39844 2.7305 0.76563 4.0938 1.2109 0.085937 0.027344 0.17578-0.015625 0.20703-0.10156l2.2695-6.2148c0.027343-0.070313 0.09375-0.11328 0.16797-0.10938 0.074219 0.007812 0.13672 0.058593 0.14844 0.13281l1.5117 7.9961c0.007813 0.050781 0.039063 0.089844 0.082032 0.11328 1.5938 0.85938 2.9414 1.8906 4.0703 3.0977 0.046875 0.050782 0.12109 0.066407 0.1875 0.039063 0.074219-0.023437 0.11328-0.089844 0.10938-0.16016zm8.4336-6.875-1.0586-15.039v-0.007812l-0.30078-10.453c0-0.039063-0.015625-0.074219-0.039062-0.10156-4.7305-5.4688-5.5195-8.0156-7.1328-15.344-0.003906-0.019531-0.003906-0.035156-0.003906-0.054687 0.066406-0.55469 0.34766-1.0469 0.76953-1.3906 0.039062-0.03125 0.0625-0.078125 0.0625-0.12891v-16.113c0-0.98828 1.0703-1.5391 1.8672-1.0664h0.003906c0.003906 0.003906 0.007812 0.003906 0.011718 0.007812l9.3359 4.4883c0.9375 0.44922 0.92578 1.7812 0 2.2266l-8.6484 4.1562c-0.058593 0.027344-0.09375 0.082032-0.09375 0.14844v6.1055c0 0.054688 0.023438 0.10156 0.066407 0.13281 0.003906 0.003906 0.007812 0.007813 0.015625 0.011719 0.027344 0.019531 0.042968 0.042968 0.054687 0.074218 1.7969 5.0664 3.6875 6.7695 6.9297 9.7852 0.007812 0.003906 0.011719 0.011719 0.019531 0.015625 0.98828 0.68359 2.5352 1.1445 4.9453 1.6445 3.6562 0.76172 9.2852 0.69141 15.125 0.71875 0.011719 0 0.019532 0 0.03125 0.003906 0.80078 0.16406 1.4102 0.81641 1.5156 1.625 0.10547 0.80859-0.30859 1.5938-1.0352 1.9609-0.015625 0.007812-0.03125 0.011719-0.046875 0.015625-8.0625 1.293-12.09 1.9375-12.09 1.9375 0.56641 7.0703 2.7344 14 4.418 20.953 0.019531 0.089843-0.03125 0.17578-0.12109 0.19922-1.5898 0.39844-3.0547 0.69922-4.7188 1.0469-0.078126 0.015626-0.15234-0.023437-0.18359-0.09375l-4.0391-9.2031c-0.03125-0.070313-0.10547-0.10938-0.18359-0.097657-0.078126 0.015625-0.13281 0.078125-0.13281 0.15625l-0.28125 10.184c-0.003906 0.074219-0.050781 0.13672-0.125 0.15625-1.6094 0.41016-3.2031 0.88672-4.707 1.4844-0.050782 0.019531-0.10156 0.015625-0.14844-0.011719-0.050781-0.035156-0.078125-0.078125-0.082031-0.13281zm-6.4766 20.523c-8.5039-12.938-32.551-3.3359-27.41-25.848 0.015625-0.070312 0.074219-0.12109 0.14844-0.12891 0.074218-0.007813 0.14062 0.035156 0.16797 0.10547 5.0898 12.656 21.832 5.1836 26.137 19.809 0.023438 0.078125 0.097657 0.12891 0.17578 0.11719 0.082032-0.007813 0.14453-0.082032 0.14453-0.16406 0.23828-23.57 40.074-3.6719 39.664-37.574 0-0.089843 0.070313-0.16406 0.16016-0.16797 0.082032-0.003906 0.15234 0.050781 0.16797 0.13281 11.148 50.844-28.855 20.43-39.316 43.855-0.015625-0.078125-0.027344-0.15234-0.042969-0.23047 0 0.035156 0 0.0625 0.003906 0.09375zm0.011719-80.398h0.03125-0.03125zm-11.535 30.535c2.0039 0 3.625 1.625 3.625 3.625 0 2.0039-1.625 3.625-3.625 3.625-2.0039 0-3.625-1.625-3.625-3.625 0-2.0039 1.6211-3.625 3.625-3.625zm24.953-11.777c-2.3633 0-4.2812 1.9141-4.2812 4.2812 0 2.3633 1.9141 4.2812 4.2812 4.2812 2.3633 0 4.2812-1.9141 4.2812-4.2812 0-2.3633-1.918-4.2812-4.2812-4.2812z" fill-rule="evenodd"/>
<text x="0.0" y="117.5" font-size="5.0" font-weight="bold" font-family="Arbeit Regular, Helvetica, Arial-Unicode, Arial, Sans-serif" fill="#000000">Created by diyah farida</text><text x="0.0" y="122.5" font-size="5.0" font-weight="bold" font-family="Arbeit Regular, Helvetica, Arial-Unicode, Arial, Sans-serif" fill="#000000">from Noun Project</text></svg>