<svg xmlns="http://www.w3.org/2000/svg" version="1.1" viewBox="-5.0 -10.0 110.0 135.0">
 <path d="m37.844 82.938h24.285c-1.1875-1.8477-2.8398-3.3555-4.7852-4.375 3.2188-1.3867 6.3594-2.9531 9.4062-4.6875 5.0938 5.0898 7.6016 12.219 6.8125 19.375h-9.375c-0.007812-0.47266 0.03125-3.668-0.042969-4.0625h-28.285c-0.078125 0.37109-0.035156 3.6133-0.046875 4.0625h-9.375c-0.5625-4.7539 0.36328-9.5664 2.6445-13.773 2.2852-4.207 5.8125-7.6055 10.105-9.7266 0.86328-0.39844 9.7461-4.5078 10.844-5 5.8906-2.7539 12.484-4.8125 13.707-11.625h-27.5c0.75391 3.5508 3.0977 6.5547 6.3555 8.1562-3.2422 1.3672-6.3945 2.9453-9.4375 4.7188-10.562-10.094-8.4375-29.656 6.0625-36.062 4.1562-1.9375 13.531-6.2812 17.594-8.1875 2.1875-1.0273 4.0391-2.6523 5.3438-4.6875h-24.293c1.1953 1.8672 2.8594 3.3867 4.8242 4.4062-3.8945 1.8633-6.3164 2.6953-9.5312 4.5625-5.0156-5.0938-7.4844-12.172-6.7188-19.281h9.375c0.007812 0.47266-0.03125 3.668 0.042969 4.0625h28.285c0.078125-0.37109 0.035156-3.6133 0.046875-4.0625h9.375c1.0625 13.582-6.5195 21.781-18.625 26.219-7.8477 4.3086-16.664 5.1133-18.676 13.906h27.5c-0.75391-3.5508-3.0977-6.5547-6.3555-8.1562 3.2109-1.375 6.3398-2.9297 9.375-4.6562 11.137 9.8984 7.8867 30.129-5.9688 36l-10.781 5c-3.7539 1.8477-10.105 3.9414-12.188 7.875z"/>
<text x="0.0" y="117.5" font-size="5.0" font-weight="bold" font-family="Arbeit Regular, Helvetica, Arial-Unicode, Arial, Sans-serif" fill="#000000">Created by Dicky Prayudawanto</text><text x="0.0" y="122.5" font-size="5.0" font-weight="bold" font-family="Arbeit Regular, Helvetica, Arial-Unicode, Arial, Sans-serif" fill="#000000">from Noun Project</text></svg>