<svg xmlns="http://www.w3.org/2000/svg" xmlns:xlink="http://www.w3.org/1999/xlink" xml:space="preserve" version="1.1" style="shape-rendering:geometricPrecision;text-rendering:geometricPrecision;image-rendering:optimizeQuality;" viewBox="0 0 100 125" x="0px" y="0px" fill-rule="evenodd" clip-rule="evenodd"><defs><style type="text/css">
   
    .fil0 {fill:black}
   
  </style></defs><g><path class="fil0" d="M51.37 81.06c7.77,-1.46 9.89,-4.3 10.31,-7.2 1.01,2.02 5.13,5.16 8.44,3.43 -1.05,-1.39 -2.54,-3.13 -2.17,-5.69 2.82,2.44 8.51,2.92 11.8,0.31 -2.51,-0.54 -5.47,-1.88 -6.17,-3.69 5.86,1.39 13.73,-0.37 17.09,-6.96 -2.79,1.68 -10.09,2.56 -12.2,1.07 7.89,-0.34 17.09,-5.48 17.9,-14.31 -2.05,3.08 -10.44,6.76 -14.9,7.09 7.66,-3.46 15.66,-6.83 16.25,-19.35 -2.23,4.07 -10.91,10.33 -15.32,10.96 7.12,-3.84 16.16,-13.06 13.49,-27.78 -5.39,22.29 -36.51,22.53 -38.51,40.45 -0.46,4.94 -1,14.32 -6.01,21.67zm-12.44 -13.55c-3.02,-2.95 0,-12.97 -12.01,-18.8 12.93,4.32 9.22,12.98 12.01,18.8zm22.14 0c3.02,-2.95 0,-12.97 12.01,-18.8 -12.93,4.32 -9.22,12.98 -12.01,18.8zm-12.44 13.55c-7.77,-1.46 -9.89,-4.3 -10.31,-7.2 -1.01,2.02 -5.13,5.16 -8.44,3.43 1.05,-1.39 2.54,-3.13 2.17,-5.69 -2.82,2.44 -8.51,2.92 -11.8,0.31 2.51,-0.54 5.47,-1.88 6.17,-3.69 -5.86,1.39 -13.73,-0.37 -17.09,-6.96 2.79,1.68 10.09,2.56 12.2,1.07 -7.89,-0.34 -17.09,-5.48 -17.9,-14.31 2.05,3.08 10.44,6.76 14.9,7.09 -7.66,-3.46 -15.66,-6.83 -16.25,-19.35 2.23,4.07 10.91,10.33 15.32,10.96 -7.12,-3.84 -16.16,-13.06 -13.49,-27.78 5.39,22.29 36.51,22.53 38.51,40.45 0.46,4.94 1,14.32 6.01,21.67z"/></g><text x="0" y="115" fill="#000000" font-size="5px" font-weight="bold" font-family="'Helvetica Neue', Helvetica, Arial-Unicode, Arial, Sans-serif">Created by Ahmad H</text><text x="0" y="120" fill="#000000" font-size="5px" font-weight="bold" font-family="'Helvetica Neue', Helvetica, Arial-Unicode, Arial, Sans-serif">from the Noun Project</text></svg>