<svg xmlns="http://www.w3.org/2000/svg" version="1.1" viewBox="-5.0 -10.0 110.0 135.0">
 <path d="m53.391 88.289-15.32-8.6914c-1.7383 1.9219-3.25 4.8516-4.4102 8.5391-0.76953 2.4492-1.1914 4.6016-1.3984 5.8594h28.32c-1.7617-1.4219-4.5508-3.6719-6.3594-5.1406-0.26172-0.21094-0.53906-0.39844-0.82812-0.57031z"/>
 <path d="m58.781 82.621c0.67969 0.53906 1.5195 0.82031 2.3789 0.80078 1.1211-0.019531 2.7383-0.039063 4.0703-0.019531 0.71875 0.011718 1.3008 0.039062 1.7188 0.070312 0.51953 0.050782 1.3086 0.12109 1.6094 0.80078 0.050781 0.078124 0.33984 0.55078 1.8203 2.4414 0.21094 0.26953 0.48047 0.48828 0.78125 0.64844 1.4102-3.2383 1.7891-6.5508 1.1094-9.8711-0.60156-2.9609-2.0391-5.9492-4.2695-8.8789-3.8516-5.0586-8.7305-8.1914-8.7812-8.2188-0.26953-0.17188-0.44922-0.44922-0.48828-0.76172-0.039063-0.30859 0.050781-0.62891 0.26172-0.87109 1.2695-1.4414 1.75-2.8398 1.4883-4.2695-0.21094-1.1602-0.91016-2.3281-2.0781-3.4805-1.2383-1.2305-2.5898-2-3.1211-2.2812-1.5508-0.82031-3.8594-2.1211-6-3.8594-2.7109-2.2188-4.3906-4.5586-4.9883-6.9492-0.39062-1.5586-0.80859-3.6484-0.44141-5.0312-0.46094-0.32031-0.89844-0.67969-1.2891-1.0703-0.42188-0.42187-0.42188-1.1094 0-1.5312 0.42188-0.42187 1.1094-0.42187 1.5312 0 1.9688 1.9688 5.5312 2.8398 6.9609 3.1211 0.39844 0.078125 0.80859-0.039062 1.0898-0.32031 1.5-1.5117 3-4.2695 3.0195-4.3008 0.17188-0.30859 0.46875-0.51172 0.80859-0.55859l1.6484-0.21875v-4.1406c0-0.26172 0.089844-0.51172 0.26172-0.71094 1.6602-1.9219 1.9805-4 1.9609-5.3906-1.6406 0.82031-3.9219 1.3711-6.8008 1.6484-2.7305 0.26172-5.0391 0.17969-5.3203 0.17188h-1.4805c-0.53125 0-0.96875-0.35938-1.0586-0.87109-0.019532-0.078125-0.26953-1.1211-1.0703-1.3398-2.0117-0.55859-2.6211 0.32031-2.9609 1.2383-0.48828 1.3594-0.30078 2.5586 0.60156 3.75 0.35938 0.48047 0.26172 1.1602-0.21875 1.5117-0.48047 0.35938-1.1602 0.26172-1.5117-0.21875-1.3281-1.7812-1.6406-3.7305-0.91016-5.7812 0.85938-2.3984 2.8906-3.3516 5.5703-2.6016 1.2305 0.33984 1.9609 1.2891 2.3281 2.1289h0.71875 0.050781c2.4688 0.10938 9.3281-0.089844 12.02-2.1719-0.17188-1.5-0.82812-3.1992-1.8516-4.6602-1.5117-2.1719-3.6797-3.6914-6.1016-4.2891-2.1719-0.53906-4.3008-0.32812-6.3203 0.62109-1.5391 0.71875-2.4414 1.6289-2.4492 1.6406-0.41016 0.42188-1.0703 0.44141-1.5 0.039063-0.019531-0.019532-2.6484-2.3594-5.25-1.8711-1.4688 0.28125-2.7383 1.4492-3.75 3.4805-1.1289 2.2695-1.3594 4.0781-0.67969 5.3789 0.92969 1.7812 3.3594 2.1719 3.3789 2.1797 0.28906 0.039063 0.55859 0.19922 0.73047 0.44922 0.17188 0.23828 0.23047 0.53906 0.17969 0.82812-0.019531 0.16016 0.019531 0.67969 0.050781 1.1094 0.12109 1.5898 0.32812 4.2617-0.51172 6.6602 0 0 0 0.019531-0.011718 0.03125 0 0.019531-0.019532 0.050781-0.03125 0.070313 0 0 0 0.019531-0.011719 0.03125-0.011719 0.019531-0.019531 0.050781-0.039063 0.070312v0.011719c-0.12109 0.19922-2.0312 3.3594-3.6719 6.0195 2.0195-0.42188 4.1211 0.03125 5.7695 1.2383 0.35938 0.26953 0.67969 0.55859 0.96094 0.87109 0.39062 0.44922 0.33984 1.1289-0.10938 1.5312-0.44922 0.39062-1.1289 0.33984-1.5312-0.10938-0.17188-0.19141-0.37109-0.37891-0.60156-0.55078-1.1602-0.85156-2.6406-1.1719-4.0703-0.85938-1.4414 0.30859-2.6914 1.2109-3.4102 2.4805-0.89844 1.5781-1.4102 3.9805-1.5508 7.3398-0.21094 5.0586 1.4805 16.59 2.3789 22.789 0.23047 1.5781 0.41016 2.8281 0.53125 3.6992 0.10938 0.87109 0.64062 1.6406 1.3984 2.0703l6.6602 3.7812 16.051 9.1016c0.39844 0.21875 0.78125 0.48047 1.1289 0.76953 2.5 2.0312 6.8516 5.5391 7.8086 6.3086 0.32031 0.26172 1.3281 0.51953 2.6289 0.51953 1.4297 0 2.3008-0.30078 2.5195-0.48828 0.23047-0.19922 0.80078-0.78906 2.0391-2.5312 0.19922-0.28125 0.26172-0.60938 0.17969-0.94141-0.078126-0.32813-0.28906-0.60156-0.58984-0.75-0.58984-0.30078-1.0898-0.71875-1.5-1.2383-1.0312-1.3203-1.5391-2.0117-1.8008-2.3984-0.51953-0.050781-1.9297-0.12891-5.6602-0.050781-1.3594 0.03125-2.6992-0.42188-3.7695-1.2695-2-1.5898-5.9609-4.6797-9.9609-7.5508-6.0391-4.3203-8.7617-5.6797-9.9883-6.0703-0.48828-0.14844-0.80859-0.64062-0.75-1.1484 0.51172-4.6602 1.75-17.289 1.4219-19.719-0.078125-0.58984 0.33984-1.1406 0.92969-1.2188 0.58984-0.078125 1.1406 0.33984 1.2188 0.92969 0.37891 2.8398-0.92969 15.711-1.3281 19.41 4.9609 2.0898 15.371 10.148 19.809 13.672z"/>
<text x="0.0" y="117.5" font-size="5.0" font-weight="bold" font-family="Arbeit Regular, Helvetica, Arial-Unicode, Arial, Sans-serif" fill="#000000">Created by Yon ten</text><text x="0.0" y="122.5" font-size="5.0" font-weight="bold" font-family="Arbeit Regular, Helvetica, Arial-Unicode, Arial, Sans-serif" fill="#000000">from Noun Project</text></svg>