<svg xmlns="http://www.w3.org/2000/svg" data-name="Layer 1" viewBox="0 0 95 118.75" x="0px" y="0px"><path d="M85.6,29.861v7.207a3.5,3.5,0,0,1-3.5,3.5h-5.4a3.5,3.5,0,0,1-3.495-3.5V29.861H66.008a3.5,3.5,0,0,1-3.5-3.5v-5.4a3.5,3.5,0,0,1,3.5-3.5h7.207V13.886c-10.306-2.763-20.125,2.331-26.4,13.763a1.152,1.152,0,0,1-2.021,0c-8.539-15.566-21.59-16.4-30.173-12.386C5.075,19.73-2.389,31.336,2.59,44.044c3.4,8.682,11.944,14.537,20.99,20.737,8.684,5.951,17.641,12.09,22.228,21.143C50.4,76.871,59.353,70.732,68.036,64.781c9.046-6.2,17.59-12.055,20.991-20.737a21.637,21.637,0,0,0,.691-14.183ZM62.473,43.118c-.081,4.443-2.6,9.612-7.1,14.554q-.7.774-1.458,1.522A40.313,40.313,0,0,0,59.8,62.565a1.153,1.153,0,0,1,.6,1.47,8.229,8.229,0,0,1-4.1,4.694,1.154,1.154,0,0,1-.468.1,1.167,1.167,0,0,1-.431-.083,41.909,41.909,0,0,1-7.9-4.267,42.245,42.245,0,0,1-7.89,4.267,1.154,1.154,0,0,1-.9-.016,8.222,8.222,0,0,1-4.1-4.694,1.153,1.153,0,0,1,.6-1.47,39.824,39.824,0,0,0,5.875-3.372c-6.271-6.218-9.385-13.013-8.364-18.372.5-2.6,2.248-6.151,7.787-8.32a17.417,17.417,0,0,1,14.816.35C61.341,35.537,62.532,39.917,62.473,43.118ZM94,20.97v5.4a1.192,1.192,0,0,1-1.19,1.19H84.45A1.153,1.153,0,0,0,83.3,28.709v8.359a1.192,1.192,0,0,1-1.19,1.191h-5.4a1.192,1.192,0,0,1-1.19-1.191V28.709a1.153,1.153,0,0,0-1.152-1.153h-8.36a1.192,1.192,0,0,1-1.191-1.19v-5.4a1.192,1.192,0,0,1,1.191-1.191h8.36a1.153,1.153,0,0,0,1.152-1.153V10.267a1.192,1.192,0,0,1,1.19-1.191h5.4a1.192,1.192,0,0,1,1.19,1.191v8.359a1.153,1.153,0,0,0,1.153,1.153h8.36A1.192,1.192,0,0,1,94,20.97ZM39.089,38.7a6.668,6.668,0,0,1,3.294-3.625,10.3,10.3,0,0,1,5.156-1.557,10.218,10.218,0,0,1,5.382,1.728,6.5,6.5,0,0,1,3,3.453A17.387,17.387,0,0,0,39.089,38.7Zm-.18,2.833a15.02,15.02,0,0,1,17.2.006c-.5,3.288-3.18,7.4-7.632,11.684q-.477.457-.975.912C42.534,49.6,39.458,45.062,38.909,41.536Zm-3.914-.284a7.54,7.54,0,0,1,2.211-4.063,7.589,7.589,0,0,0-.653,2.428C35.96,45.5,41.667,51.892,45.76,55.664c-.9.751-1.822,1.481-2.756,2.173C37.173,52.157,34.117,45.862,34.995,41.252ZM52.2,60.811a45.953,45.953,0,0,0,5.6,3.361,5.693,5.693,0,0,1-2.02,2.235A39.388,39.388,0,0,1,49.5,63.038C50.425,62.329,51.329,61.584,52.2,60.811Zm5.59-23.644a7.687,7.687,0,0,1,2.381,5.908c-.07,3.828-2.439,8.583-6.5,13.045A42.557,42.557,0,0,1,39.232,66.407a5.7,5.7,0,0,1-2.02-2.238C44.9,60.324,57.92,49.834,58.485,41.042A7.844,7.844,0,0,0,57.787,37.167Z"/><text x="0" y="110" fill="#000000" font-size="5px" font-weight="bold" font-family="'Helvetica Neue', Helvetica, Arial-Unicode, Arial, Sans-serif">Created by Sunardi</text><text x="0" y="115" fill="#000000" font-size="5px" font-weight="bold" font-family="'Helvetica Neue', Helvetica, Arial-Unicode, Arial, Sans-serif">from the Noun Project</text></svg>