<svg xmlns="http://www.w3.org/2000/svg" xmlns:xlink="http://www.w3.org/1999/xlink" version="1.1" x="0px" y="0px" viewBox="0 0 100 125" style="enable-background:new 0 0 100 100;" xml:space="preserve"><path d="M94.5,50c-1.1,0-2.1,0.9-2.1,2.1c0,23.4-19,42.4-42.4,42.4S7.7,75.5,7.7,52.1c0-22.4,17.4-40.7,39.4-42.3  l-1.9,1.4c-0.9,0.7-1.1,2-0.4,2.9c0.4,0.5,1,0.8,1.6,0.8c0.4,0,0.9-0.1,1.2-0.4l6.8-5.2c0.5-0.4,0.8-1,0.8-1.7s-0.4-1.3-0.9-1.6  l-6.8-4.6C46.7,0.7,45.5,1,44.8,2c-0.6,0.9-0.4,2.2,0.6,2.9l1.4,0.9C22.7,7.4,3.6,27.6,3.6,52.1c0,25.6,20.9,46.5,46.5,46.5  s46.5-20.9,46.5-46.5C96.6,50.9,95.7,50,94.5,50z"/><circle cx="93" cy="41.3" r="2.5"/><circle cx="89.7" cy="32" r="2.5"/><circle cx="83.7" cy="23.2" r="2.5"/><circle cx="75.3" cy="15.7" r="2.5"/><circle cx="65.4" cy="10.5" r="2.5"/><ellipse cx="40.8" cy="34.4" rx="8.9" ry="8.7"/><ellipse cx="68" cy="37.1" rx="5" ry="4.9"/><path d="M74.2,53.6c-1-2-3.4-2.7-5.4-1.7l-12.9,6.7c-1.4-2.1-12.8-17.7-23.3-11.7c-6.7,3.8-3.9,20.4-2,28.6h22.9  l0.7-5.8c-0.4-0.3-17.8-13.5-17.5-13.9c0.3-0.4,1-0.5,1.4-0.2l16.6,12.6L72.5,59C74.4,57.9,75.2,55.5,74.2,53.6z"/><path d="M57.7,55.3c-1.2,0-2.3-0.6-2.9-1.7c-0.9-1.6-0.3-3.5,1.3-4.4l10.3-5.6c1.6-0.9,3.5-0.3,4.4,1.3  c0.9,1.6,0.3,3.5-1.3,4.4l-10.3,5.6C58.7,55.2,58.2,55.3,57.7,55.3z"/><text x="0" y="115" fill="#000000" font-size="5px" font-weight="bold" font-family="'Helvetica Neue', Helvetica, Arial-Unicode, Arial, Sans-serif">Created by Aneeque Ahmed</text><text x="0" y="120" fill="#000000" font-size="5px" font-weight="bold" font-family="'Helvetica Neue', Helvetica, Arial-Unicode, Arial, Sans-serif">from the Noun Project</text></svg>