<svg xmlns="http://www.w3.org/2000/svg" version="1.1" viewBox="-5.0 -10.0 110.0 135.0">
 <path d="m49.141 38.574c-3.0195 0-5.4727 2.457-5.4727 5.4766s2.4531 5.4766 5.4727 5.4766 5.4727-2.457 5.4727-5.4766c0.003907-3.0234-2.4531-5.4766-5.4727-5.4766zm0 9.9492c-2.4648 0-4.4727-2.0078-4.4727-4.4766s2.0078-4.4766 4.4727-4.4766c2.4688 0 4.4727 2.0078 4.4727 4.4766 0.003907 2.4688-2.0039 4.4766-4.4727 4.4766z"/>
 <path d="m84.59 39.633c-1.6445 0-3.2656 0.41797-4.7344 1.1758l-6.9688-12.07c2.9453-1.9023 4.7695-5.1797 4.7695-8.6953 0-5.7109-4.6484-10.359-10.359-10.359-5.5508 0-10.082 4.3828-10.344 9.8633h-13.906c-0.26172-5.4805-4.7891-9.8633-10.336-9.8633-5.7188 0-10.371 4.6484-10.371 10.359 0 3.5156 1.8242 6.7891 4.7734 8.6953l-6.9688 12.066c-1.4648-0.75391-3.082-1.1719-4.7266-1.1719-5.7188 0-10.371 4.6484-10.371 10.359 0 5.7188 4.6523 10.371 10.371 10.371 1.6406 0 3.2617-0.41797 4.7266-1.1719l6.9688 12.07c-2.9453 1.9023-4.7695 5.1758-4.7695 8.6836 0 5.7188 4.6523 10.371 10.371 10.371 5.5391 0 10.066-4.3828 10.336-9.8633h13.906c0.26562 5.4844 4.7969 9.8672 10.344 9.8672 5.7148 0 10.359-4.6523 10.359-10.371 0-3.5117-1.8242-6.7852-4.7695-8.6875l6.9688-12.07c1.4688 0.75781 3.0898 1.1758 4.7344 1.1758 5.7148 0 10.359-4.6523 10.359-10.371-0.003906-5.7148-4.6484-10.363-10.363-10.363zm-17.293-28.949c5.1602 0 9.3594 4.1992 9.3594 9.3594 0 3.3281-1.7969 6.4375-4.6875 8.1094-1.4258 0.82422-3.0391 1.2617-4.6758 1.2617-0.64453 0-1.2773-0.066406-1.8867-0.19141-4.2656-0.875-7.4805-4.6562-7.4844-9.1797 0.003906-5.1602 4.207-9.3594 9.375-9.3594zm-43.957 9.3594c0-5.1602 4.2031-9.3594 9.3711-9.3594 5.1602 0 9.3594 4.1992 9.3594 9.3633-0.003906 5.1641-4.2031 9.3672-9.3594 9.3672-1.6367 0-3.2539-0.4375-4.6797-1.2617l-0.007812-0.003906c-2.8867-1.6758-4.6836-4.7812-4.6836-8.1055zm-17.289 29.949c0-5.1602 4.2031-9.3594 9.3711-9.3594 1.6367 0 3.2539 0.4375 4.6758 1.2578 2.8906 1.6719 4.6875 4.7734 4.6875 8.1016 0 1.25-0.25391 2.4688-0.72266 3.5898-0.78125 1.8711-2.1602 3.4766-3.9648 4.5234l-0.007812 0.003906c-1.4258 0.82031-3.0391 1.2578-4.668 1.2578-5.168-0.003907-9.3711-4.207-9.3711-9.375zm26.66 39.324c-5.168 0-9.3711-4.2031-9.3711-9.3711 0-3.3203 1.7969-6.4258 4.6875-8.0977 0.80859-0.46875 1.6719-0.80859 2.5742-1.0195 0.30078-0.070313 0.60547-0.12109 0.91406-0.16406 0.41406-0.054687 0.80469-0.082031 1.1875-0.082031 0.64453 0 1.2695 0.066407 1.8789 0.1875 0.19141 0.039063 0.37891 0.09375 0.5625 0.14453 0.10938 0.027344 0.22266 0.050782 0.32812 0.085938 0.51172 0.15625 0.99609 0.36719 1.4688 0.60547 0.066406 0.035156 0.14062 0.0625 0.20312 0.097656 0.24219 0.13281 0.47266 0.27344 0.70312 0.42578 0.019532 0.015625 0.046875 0.027344 0.066406 0.039063 0.96484 0.64844 1.8008 1.4766 2.4648 2.4297 0.019532 0.027344 0.042969 0.054688 0.0625 0.085938 0.3125 0.46094 0.58594 0.95312 0.8125 1.4688 0.015625 0.035156 0.039063 0.070312 0.054688 0.10938 0.082031 0.19141 0.14844 0.39453 0.22266 0.59375 0.03125 0.089843 0.070312 0.17578 0.097656 0.26562 0.058594 0.17969 0.097656 0.36719 0.14453 0.55078 0.027343 0.11328 0.066406 0.22656 0.089843 0.33984 0.035157 0.16406 0.054688 0.33203 0.078125 0.5 0.023438 0.14062 0.050782 0.28125 0.066406 0.42578 0.015626 0.14453 0.015626 0.28906 0.023438 0.43359 0.011719 0.17578 0.027344 0.34375 0.027344 0.51953v0.058594c0.007812 5.1641-4.1914 9.3672-9.3477 9.3672zm43.945-9.3711c0 5.168-4.1992 9.3711-9.3594 9.3711-5.1641 0-9.3672-4.2031-9.3672-9.3672v-0.085938c0.039062-4.8047 3.7227-8.7578 8.418-9.2305 0.3125-0.03125 0.63281-0.046874 0.95312-0.046874 0.37109 0 0.75781 0.027343 1.1836 0.078124 1.2383 0.15625 2.4141 0.55469 3.4922 1.1797 2.8867 1.6758 4.6797 4.7773 4.6797 8.1016zm-4.6211-9.207c-0.089844-0.046875-0.1875-0.085937-0.27734-0.12891-0.11328-0.054687-0.23047-0.10938-0.35156-0.16016-0.18359-0.078125-0.37109-0.15234-0.55859-0.21875-0.11719-0.042969-0.23047-0.085938-0.35156-0.125-0.20703-0.066407-0.41797-0.12109-0.62891-0.17969-0.10156-0.027343-0.19922-0.058593-0.30469-0.078125-0.31641-0.070312-0.63672-0.12891-0.96094-0.17188-0.46875-0.058593-0.89453-0.089843-1.3086-0.089843-0.35156 0-0.69922 0.019531-1.043 0.054687-0.11328 0.011719-0.22656 0.035156-0.33984 0.050781-0.22656 0.03125-0.45312 0.058594-0.67578 0.10547-0.13281 0.027344-0.25781 0.066406-0.39062 0.097656-0.19922 0.046875-0.39844 0.09375-0.58984 0.15234-0.13672 0.039063-0.26562 0.09375-0.39844 0.14062-0.18359 0.0625-0.36328 0.125-0.53906 0.19922-0.13281 0.054687-0.26172 0.12109-0.39453 0.18359-0.16797 0.078126-0.33984 0.15234-0.5 0.24219-0.13281 0.070312-0.25391 0.14844-0.38281 0.22266-0.15625 0.09375-0.3125 0.18359-0.46484 0.28125-0.125 0.082032-0.24219 0.17188-0.36328 0.26172-0.14453 0.10547-0.28906 0.21094-0.42969 0.32031-0.11719 0.09375-0.22656 0.19531-0.33984 0.29687-0.13281 0.11719-0.26562 0.23438-0.39453 0.35547-0.10938 0.10547-0.21094 0.21875-0.3125 0.32812-0.12109 0.12891-0.23828 0.25391-0.35547 0.39062-0.10156 0.11719-0.19141 0.23828-0.28516 0.35938-0.10547 0.13672-0.21484 0.27344-0.3125 0.41797-0.089844 0.125-0.16797 0.25781-0.25391 0.38672-0.09375 0.14844-0.1875 0.29297-0.26953 0.44531-0.074218 0.13672-0.14453 0.27344-0.21875 0.41406-0.078124 0.15625-0.15625 0.3125-0.22656 0.47266-0.0625 0.14453-0.12109 0.28906-0.17969 0.4375-0.0625 0.16016-0.125 0.32422-0.17969 0.48828-0.050781 0.15234-0.09375 0.30469-0.13672 0.46094-0.046875 0.16797-0.09375 0.33984-0.13281 0.51172-0.035156 0.15625-0.066406 0.31641-0.09375 0.47656-0.03125 0.17578-0.058594 0.35156-0.082032 0.52734-0.019531 0.16406-0.035156 0.32812-0.046874 0.49219-0.007813 0.097656-0.023438 0.19141-0.027344 0.28906h-13.875c-0.003906-0.097657-0.019532-0.19141-0.027344-0.28906-0.011719-0.16406-0.027344-0.32812-0.046875-0.49219-0.019531-0.17969-0.050781-0.35547-0.078125-0.52734-0.027344-0.16016-0.058594-0.32031-0.09375-0.47656-0.039062-0.17187-0.082031-0.33984-0.13281-0.51172-0.042969-0.15625-0.089844-0.30859-0.14063-0.46094-0.054687-0.16406-0.11328-0.32422-0.17969-0.48828-0.058594-0.14844-0.11328-0.29688-0.17969-0.44141-0.070313-0.15625-0.14844-0.3125-0.22656-0.46484-0.070313-0.14062-0.14062-0.28125-0.21875-0.41797-0.085937-0.14844-0.17578-0.29297-0.26562-0.4375-0.085938-0.13281-0.16797-0.26562-0.25781-0.39453-0.097657-0.14062-0.20313-0.27344-0.30859-0.41016-0.09375-0.12109-0.1875-0.24609-0.28906-0.36719-0.10938-0.13281-0.23047-0.25391-0.34766-0.38281-0.10547-0.11328-0.21094-0.22656-0.32031-0.33594-0.12109-0.12109-0.25391-0.23047-0.38281-0.34766-0.11719-0.10547-0.23047-0.20703-0.35156-0.30469-0.13672-0.10938-0.27734-0.21094-0.41797-0.3125-0.12109-0.089844-0.24219-0.18359-0.37109-0.26953-0.14453-0.097656-0.30078-0.18359-0.45312-0.27344-0.13281-0.078125-0.25781-0.16016-0.39453-0.23047-0.16016-0.085938-0.32422-0.16016-0.48828-0.23438-0.13672-0.0625-0.26563-0.13281-0.40625-0.1875-0.17188-0.070313-0.35156-0.13281-0.53125-0.19531-0.13672-0.050781-0.26953-0.10547-0.41016-0.14453-0.19141-0.058593-0.38672-0.10156-0.58203-0.14844-0.13281-0.03125-0.26172-0.070313-0.39453-0.10156-0.22266-0.042969-0.44922-0.070312-0.67578-0.10156-0.11328-0.015625-0.22266-0.039063-0.33984-0.050781-0.34375-0.035157-0.69141-0.054688-1.043-0.054688-0.42969 0-0.85938 0.027344-1.3164 0.089844-0.32422 0.039062-0.64453 0.10156-0.95703 0.17188-0.10156 0.023437-0.19922 0.054687-0.30078 0.078125-0.21094 0.054687-0.42578 0.10938-0.63281 0.17969-0.11719 0.039063-0.23047 0.082031-0.34766 0.125-0.1875 0.070313-0.375 0.14062-0.55859 0.22266-0.11719 0.050781-0.23828 0.10547-0.35547 0.16406-0.09375 0.042969-0.1875 0.082031-0.27344 0.12891l-6.9453-12.031c0.13281-0.085937 0.24609-0.1875 0.37109-0.27344 0.17188-0.12109 0.33984-0.24219 0.50391-0.37109 0.1875-0.14844 0.35938-0.30859 0.53125-0.46875 0.15234-0.14062 0.30469-0.27734 0.44531-0.42578 0.16406-0.17188 0.3125-0.35156 0.46484-0.53125 0.13281-0.15625 0.26562-0.30859 0.38672-0.47266 0.14062-0.19141 0.26953-0.39453 0.39453-0.59375 0.10938-0.16797 0.22266-0.33203 0.32031-0.50781 0.12109-0.21484 0.22266-0.4375 0.32422-0.65625 0.082032-0.17578 0.17188-0.34766 0.24609-0.52344 0.097656-0.23828 0.17188-0.48828 0.25-0.73438 0.054688-0.17187 0.12109-0.33984 0.16797-0.51562 0.074219-0.28125 0.12109-0.56641 0.17188-0.85547 0.027344-0.14844 0.066406-0.29297 0.085938-0.44531 0.058593-0.44141 0.089843-0.88672 0.089843-1.3398 0-0.44922-0.03125-0.89453-0.089843-1.3359-0.019532-0.14844-0.058594-0.28906-0.085938-0.4375-0.050781-0.28906-0.10156-0.58203-0.17578-0.86328-0.046875-0.16797-0.10938-0.32812-0.16016-0.49609-0.082031-0.25391-0.15625-0.50781-0.25781-0.75-0.070312-0.17188-0.15625-0.33594-0.23828-0.50391-0.10547-0.23047-0.21094-0.45703-0.33594-0.67969-0.09375-0.16797-0.20312-0.32422-0.30469-0.48438-0.13281-0.20703-0.26172-0.41406-0.41016-0.61328-0.11719-0.15625-0.24609-0.30469-0.37109-0.45703-0.15625-0.1875-0.30859-0.37109-0.47656-0.54688-0.14062-0.14453-0.28906-0.27734-0.4375-0.41406-0.17578-0.16406-0.35156-0.32422-0.53906-0.47656-0.16016-0.12891-0.32812-0.24609-0.49609-0.36328-0.12891-0.089844-0.24609-0.19141-0.37891-0.27734l6.9453-12.031c0.14453 0.074218 0.30078 0.13281 0.44922 0.19922 0.16406 0.074219 0.32812 0.15234 0.49609 0.22266 0.24609 0.097656 0.49609 0.17578 0.74609 0.25391 0.16016 0.050781 0.32031 0.10547 0.48437 0.14844 0.28125 0.070313 0.56641 0.12109 0.85547 0.17188 0.14062 0.023437 0.27344 0.058593 0.41406 0.074218 0.42969 0.054688 0.85938 0.085938 1.293 0.085938 0.35156 0 0.69922-0.019532 1.043-0.054688 0.11328-0.011718 0.22266-0.035156 0.33594-0.050781 0.22656-0.03125 0.45312-0.058594 0.67578-0.10547 0.13672-0.027344 0.26562-0.066406 0.39844-0.10156 0.19531-0.046875 0.39062-0.089844 0.57812-0.14844 0.14063-0.042968 0.27344-0.097656 0.41016-0.14453 0.17578-0.0625 0.35547-0.12109 0.52734-0.19531 0.13672-0.058593 0.26953-0.125 0.40234-0.1875 0.16406-0.078124 0.33203-0.15234 0.49219-0.23828 0.13281-0.070312 0.25781-0.14844 0.38672-0.22656 0.15625-0.09375 0.3125-0.17969 0.46094-0.28125 0.125-0.082031 0.24219-0.17578 0.36328-0.26172 0.14453-0.10547 0.28906-0.21094 0.42969-0.32031 0.11328-0.09375 0.22266-0.19141 0.33594-0.28906 0.13672-0.11719 0.26953-0.23828 0.39844-0.36328 0.10547-0.10156 0.20312-0.21094 0.30469-0.32031 0.125-0.13281 0.24609-0.26172 0.36328-0.39844 0.09375-0.10938 0.18359-0.22656 0.26953-0.34375 0.10938-0.14453 0.22266-0.28906 0.32812-0.4375 0.082031-0.11719 0.15625-0.24219 0.23438-0.36328 0.10156-0.15625 0.19531-0.3125 0.28906-0.47266 0.070313-0.125 0.13672-0.25391 0.19922-0.38281 0.085937-0.16797 0.16797-0.33594 0.24219-0.50781 0.058594-0.13281 0.10938-0.26562 0.16406-0.39844 0.070313-0.17578 0.13672-0.35156 0.19531-0.53125 0.046874-0.13672 0.085937-0.27734 0.125-0.41797 0.050781-0.18359 0.10156-0.36719 0.14453-0.55469 0.03125-0.14453 0.0625-0.29297 0.085937-0.4375 0.03125-0.1875 0.0625-0.375 0.085938-0.56641 0.019531-0.15234 0.03125-0.30859 0.046875-0.46094 0.007812-0.10156 0.023437-0.19922 0.027343-0.30469h13.879c0.003906 0.10156 0.019531 0.19922 0.027343 0.30078 0.011719 0.16016 0.027344 0.31641 0.046876 0.47656 0.023437 0.18359 0.050781 0.36719 0.085937 0.54688 0.027344 0.15234 0.058594 0.30859 0.089844 0.46094 0.039062 0.17969 0.089843 0.35547 0.13672 0.52734 0.042968 0.14844 0.085937 0.29688 0.13281 0.44141 0.058594 0.17188 0.12109 0.33984 0.1875 0.50781 0.058594 0.14453 0.10938 0.28516 0.17578 0.42578 0.070313 0.16406 0.15234 0.32422 0.23438 0.48438 0.066406 0.13672 0.13672 0.26953 0.21094 0.40234 0.089844 0.15625 0.18359 0.30859 0.27734 0.45703 0.078124 0.12891 0.16016 0.25391 0.24609 0.37891 0.10156 0.14453 0.21094 0.28516 0.32031 0.42969 0.09375 0.11719 0.18359 0.23828 0.27734 0.35156 0.11328 0.13672 0.23828 0.26563 0.35937 0.39453 0.10156 0.10938 0.19922 0.21875 0.30859 0.32422 0.12891 0.125 0.26562 0.24219 0.39844 0.35938 0.10938 0.097656 0.21875 0.19922 0.33594 0.29297 0.14062 0.11328 0.28516 0.21875 0.43359 0.32422 0.12109 0.085937 0.23438 0.17578 0.35938 0.25781 0.15234 0.10156 0.3125 0.19141 0.46875 0.28516 0.125 0.074218 0.25 0.15234 0.37891 0.22266 0.16406 0.089844 0.33203 0.16406 0.5 0.24219 0.13281 0.0625 0.26172 0.12891 0.39453 0.18359 0.17578 0.074219 0.35547 0.13281 0.53906 0.19531 0.13281 0.046875 0.26562 0.10156 0.39844 0.14453 0.19531 0.058594 0.39453 0.10547 0.59375 0.15234 0.12891 0.03125 0.25391 0.070312 0.38672 0.097656 0.22656 0.046875 0.45703 0.074219 0.6875 0.10547 0.10938 0.015625 0.21875 0.035156 0.32812 0.050781 0.34375 0.035156 0.69141 0.054687 1.043 0.054687 0.43359 0 0.86328-0.03125 1.2891-0.085937 0.14453-0.019531 0.28125-0.054687 0.42578-0.078125 0.28125-0.046875 0.5625-0.097656 0.84375-0.16797 0.16406-0.042969 0.32812-0.10156 0.48828-0.15234 0.25-0.078126 0.49609-0.15625 0.74219-0.25391 0.16797-0.066406 0.32813-0.14453 0.49219-0.21875 0.14844-0.066406 0.30469-0.125 0.45312-0.19922l6.9453 12.031c-0.13281 0.085938-0.25 0.1875-0.37891 0.27734-0.16797 0.11719-0.33594 0.23438-0.49219 0.36328-0.19141 0.15234-0.36719 0.31641-0.54688 0.48047-0.14453 0.13672-0.29297 0.26953-0.43359 0.41016-0.17188 0.17578-0.32422 0.36328-0.48438 0.55469-0.125 0.14844-0.25391 0.29688-0.36719 0.44922-0.14844 0.19922-0.28125 0.41016-0.41406 0.62109-0.10156 0.16016-0.21094 0.31641-0.30469 0.48047-0.125 0.22266-0.23047 0.45312-0.33984 0.68359-0.078125 0.16406-0.16406 0.32812-0.23438 0.49609-0.10156 0.24609-0.17969 0.5-0.25781 0.75391-0.054687 0.16406-0.11719 0.32422-0.16016 0.49219-0.074219 0.28125-0.125 0.57422-0.17578 0.86328-0.023438 0.14453-0.0625 0.28906-0.085938 0.4375-0.058594 0.4375-0.089844 0.88672-0.089844 1.3359s0.03125 0.89453 0.089844 1.3359c0.019532 0.14844 0.058594 0.28906 0.085938 0.4375 0.050781 0.28906 0.10156 0.58203 0.17578 0.86328 0.046875 0.16797 0.10938 0.32812 0.16016 0.49219 0.082031 0.25391 0.15625 0.50781 0.25781 0.75391 0.070312 0.17188 0.15625 0.33594 0.23438 0.5 0.10938 0.23047 0.21484 0.46094 0.33984 0.68359 0.09375 0.16406 0.20313 0.32031 0.30469 0.48437 0.13281 0.21094 0.26562 0.41797 0.41016 0.61719 0.11719 0.15625 0.24609 0.30469 0.37109 0.45312 0.15625 0.1875 0.3125 0.375 0.48047 0.55469 0.13672 0.14453 0.28516 0.27344 0.43359 0.41016 0.17969 0.16406 0.35547 0.32812 0.54688 0.48047 0.15625 0.12891 0.32422 0.24219 0.48828 0.35937 0.12891 0.09375 0.24609 0.19531 0.38281 0.28125zm12.555-11.375c-1.6367 0-3.2539-0.4375-4.6836-1.2617-2.8945-1.6758-4.6875-4.7812-4.6875-8.1094 0-3.3203 1.7969-6.4258 4.6875-8.0977 1.4297-0.82422 3.0469-1.2617 4.6836-1.2617 5.1602 0 9.3594 4.1992 9.3594 9.3594 0 5.168-4.1953 9.3711-9.3594 9.3711z"/>
 <path d="m62.391 58.926c4.8047-5.6602 5.3203-14.07 0.76953-20.348-5.3477-7.3711-15.66-9.0117-23.031-3.6602-7.3711 5.3516-9.0117 15.66-3.6641 23.031 5.0117 6.9062 14.379 8.7812 21.605 4.5898l3.9961 5.5078c0.25 0.34375 1.0703 0.17578 1.8281-0.375l1.7969-1.3047c0.76172-0.55469 1.1758-1.2773 0.92578-1.6211zm-4.6797-0.65234c-1.1914 0.94141-2.5508 1.6836-4.0312 2.1523h-7.7383c-2.0703-0.65625-3.9062-1.8359-5.3672-3.3711v-2.7227c0-1.25 1.0195-2.2695 2.2695-2.2695h12.602c1.2539 0 2.2695 1.0195 2.2695 2.2695zm1-0.875v-3.0664c0-1.8008-1.4688-3.2695-3.2695-3.2695h-12.602c-1.8047 0-3.2695 1.4648-3.2695 3.2695v1.5312c-1.5781-2.125-2.5273-4.7461-2.5273-7.5977 0-7.0508 5.7148-12.762 12.762-12.762 7.0508 0 12.762 5.7148 12.762 12.762 0.003906 3.582-1.4766 6.8164-3.8555 9.1328z"/>
<text x="0.0" y="117.5" font-size="5.0" font-weight="bold" font-family="Arbeit Regular, Helvetica, Arial-Unicode, Arial, Sans-serif" fill="#000000">Created by Cha</text><text x="0.0" y="122.5" font-size="5.0" font-weight="bold" font-family="Arbeit Regular, Helvetica, Arial-Unicode, Arial, Sans-serif" fill="#000000">from Noun Project</text></svg>