<?xml version="1.0" encoding="UTF-8"?>
<svg width="1200pt" height="1200pt" version="1.1" viewBox="0 0 1200 1200" xmlns="http://www.w3.org/2000/svg">
 <path d="m796.75 196.75c0 108.66-88.09 196.75-196.75 196.75s-196.75-88.09-196.75-196.75c0-108.66 88.09-196.75 196.75-196.75s196.75 88.09 196.75 196.75z"/>
 <path d="m1023 710.73c-21.613-46.309-52.969-98.387-77.902-140.17-40.246-67.453-84.863-121.31-178.43-121.31-31.559 0-138.98-0.011718-305-0.011718-143.65 0-195.57 148.84-241.23 235.07-34.742 65.633-72.516 166.49-75.578 222.52-6.2383 114.11 73.066 188.8 85.309 197.54 64.078 45.742 138.47 84.637 260.14 94.777 90.59 7.5352 172.45-36.359 180.8-86.438 9.8984-59.461-27.852-100.88-105.72-97.367-121.75 5.4961-200.57-30.203-224.35-42.086-60.098-30.047 11.746-28.934 26.977-30.109 37.777-2.9023 75.551-11.629 94.43-27.613 19.367-16.391 1.8359-11.34-23.281-89.809-19.164-59.844 8.4609-84.852 23.594-89.797 37.297-12.191 58.789 4.2617 80.867 44.629 14.844 27.133 34.32 56.785 44.605 68.531 15.227 17.41 26.219 36.973 57.637 55.766 25.801 15.445 56.496 25.273 81.77 26.746 25.789 1.5234 24.406 0.26563 47.953-3.8633-25.117 23.594-111.94 84.469-51.758 149.18 31.957 34.379 103.56 21.191 137.1 8.1484 33.539-13.043 91.285-52.848 140.75-114.12 95.754-118.59 37.84-224.84 21.328-260.21zm-271.62 193.44c-75.48 0-136.69-61.199-136.69-136.7 0-75.492 61.211-136.7 136.69-136.7 75.504 0 136.7 61.211 136.7 136.7-0.007812 75.504-61.199 136.7-136.7 136.7z"/>
</svg>
