<svg xmlns="http://www.w3.org/2000/svg" viewBox="0 0 64 64" fill="none" stroke="currentColor" stroke-width="3.3" stroke-linecap="round" stroke-linejoin="round" aria-hidden="true">
  <circle cx="31" cy="12" r="5.8"/>
  <path d="M30 20c-5.8 3.7-9 10.2-9 18 0 8.8 4.5 15.5 11.8 15.5"/>
  <path d="M36 21c4.2 3.1 6.1 6.9 6 11.8"/>
  <path d="M34.5 32c7.8 1 13 6.2 13 12.5 0 6.9-5.7 11-13.6 11H25"/>
  <path d="M24.5 31.5c2.8 3.4 6.7 5.2 11.7 5.3"/>
  <path d="M18.5 37c-2.4 2.2-3.5 5.1-3.3 8.6"/>
  <path d="M40 26.5c2.9 1.2 5.2 3.3 6.7 6.2"/>
  <path d="M34 42.5c3.4.2 5.8 1.6 7.2 4.1"/>
</svg>
