<svg xmlns="http://www.w3.org/2000/svg" viewBox="0 0 64 64" fill="none" stroke="currentColor" stroke-width="3.1" stroke-linecap="round" stroke-linejoin="round" aria-hidden="true">
  <path d="M17 31c0-9.2 6.4-16 15-16s15 6.8 15 16"/>
  <path d="M21 22c3.1-4.2 6.8-6.3 11-6.3s7.9 2.1 11 6.3"/>
  <path d="M16 34c4.4-2.6 9.7-3.9 16-3.9s11.6 1.3 16 3.9"/>
  <path d="M13 38c1.5 9.6 9.1 16 19 16s17.5-6.4 19-16"/>
  <path d="M19 42c3.8 3.3 8.1 5 13 5s9.2-1.7 13-5"/>
  <path d="M24 34.5v2.2"/>
  <path d="M40 34.5v2.2"/>
  <path d="M29 39.5c2 1.2 4 1.2 6 0"/>
  <path d="M48.5 36.5c3.7.6 6.5 3.8 6.5 7.7 0 4.4-3.5 7.8-8.2 7.8"/>
  <path d="M15.5 36.5c-3.7.6-6.5 3.8-6.5 7.7 0 4.4 3.5 7.8 8.2 7.8"/>
</svg>
