<svg xmlns="http://www.w3.org/2000/svg" viewBox="0 0 64 64" fill="none" stroke="currentColor" stroke-width="3.1" stroke-linecap="round" stroke-linejoin="round" aria-hidden="true">
  <path d="M52 9v47"/>
  <path d="M45 14h7"/>
  <path d="M48 24h4"/>
  <path d="M45 34h7"/>
  <path d="M48 44h4"/>
  <path d="M43 56h13"/>
  <circle cx="25" cy="16" r="5.3"/>
  <path d="M18 54l2.2-17.5c.5-4.3 2.4-7.2 4.8-7.2s4.3 2.9 4.8 7.2L32 54"/>
  <path d="M20.5 36h9"/>
  <path d="M18.5 54h6.5"/>
  <path d="M31.5 54H38"/>
  <path d="M16 30c-3 2.7-5.8 4.1-8.5 4.1"/>
  <path d="M34 30c2.4 1.9 4.6 3.1 6.8 3.6"/>
</svg>
