<svg xmlns="http://www.w3.org/2000/svg" viewBox="0 0 64 64" fill="currentColor" aria-hidden="true">
  <circle cx="19" cy="13" r="6"/>
  <path d="M8 56V34c0-7 4.8-12 11-12s11 5 11 12v22H8Z"/>
  <path fill="#fff" d="M15 37h8v4h-8z"/>
  <path d="M41 7c8 5.5 10.5 11.4 7.5 17.7C45.9 30.1 37.6 32 37.6 38c0 3.8 3 7.8 9.1 12.1L43 57c-8.1-5.5-10.7-11.5-7.8-18.1 2.4-5.4 11-7.8 11-14 0-3.8-2.9-7.7-8.8-11.6L41 7Z"/>
  <path d="M52.5 7 56 13.3c-5.9 3.9-8.8 7.8-8.8 11.6 0 6.2 8.6 8.6 11 14 2.9 6.6.3 12.6-7.8 18.1l-3.7-6.9c6.1-4.3 9.1-8.3 9.1-12.1 0-6-8.3-7.9-10.9-13.3C42 18.4 44.5 12.5 52.5 7Z"/>
  <path fill="#fff" d="M41 18h11v3H41zm-1 22h13v3H40zm2-11h10v3H42z"/>
</svg>
