<svg xmlns="http://www.w3.org/2000/svg" viewBox="0 0 64 64" fill="currentColor" aria-hidden="true">
<!-- Figure on left -->
<circle cx="18" cy="14" r="5.5"/>
<path d="M11 22 Q11 20 18 20 Q25 20 25 22 L24 50 Q24 52 22 52 L14 52 Q12 52 12 50 Z"/>
<!-- DNA helix on right — two strands crossing -->
<path d="M40 8
         Q52 14 40 22
         Q28 30 40 38
         Q52 46 40 54"
      fill="none" stroke="currentColor" stroke-width="2.4" stroke-linecap="round"/>
<path d="M52 8
         Q40 14 52 22
         Q64 30 52 38
         Q40 46 52 54"
      fill="none" stroke="currentColor" stroke-width="2.4" stroke-linecap="round"/>
<!-- Rungs -->
<line x1="42" y1="14" x2="50" y2="14" stroke="currentColor" stroke-width="1.6"/>
<line x1="42" y1="22" x2="50" y2="22" stroke="currentColor" stroke-width="1.6"/>
<line x1="42" y1="30" x2="50" y2="30" stroke="currentColor" stroke-width="1.6"/>
<line x1="42" y1="38" x2="50" y2="38" stroke="currentColor" stroke-width="1.6"/>
<line x1="42" y1="46" x2="50" y2="46" stroke="currentColor" stroke-width="1.6"/>
</svg>
